<?xml version="1.0" encoding="utf-8"?>
<!-- Generator: Adobe Illustrator 26.5.0, SVG Export Plug-In . SVG Version: 6.00 Build 0)  -->
<svg version="1.1" id="Layer_1" xmlns="http://www.w3.org/2000/svg" xmlns:xlink="http://www.w3.org/1999/xlink" x="0px" y="0px"
     viewBox="0 0 242.6 248.7" style="enable-background:new 0 0 242.6 248.7;" xml:space="preserve">
<style type="text/css">
    .st0{fill:currentColor;}
</style>
<path class="st0" d="M47.6,42.4l26.3-6.2c0,0-47.1,33.4-13.1,91.5c0,0,14.4,24.4,49.4,29.9l6-71h-6.6L122.3,58l13.6,28.1l-7.1,0.1
    l7.1,71.3c0,0,50.4-7.5,59.7-60.6c0,0,3.4-32-16.9-51.7l-20.5-24.4l46.8,3.4L193,37.6c0,0,35.2,47.3,27.2,81.2l7.4,3.9
    c0,0-3.7,22.5-9,30.4l-11.9-7.5l-6.2,8l11.4,10.7c0,0-12.2,17.8-20.7,23l-11.9-15.9l-7.1,4.3l8.1,19.2c0,0-15.2,10.9-31.3,13.3
    l-5.5-22.1l-4.1,0.6l4.6,41.2H104l3.7-40.7l-4.3-0.4l-5.1,22.5c0,0-24-5-33.3-12.8l9.9-18.7l-11.4-6.5L50.8,187
    c0,0-17-14.6-20.5-22.5l11.8-11.4l-8-10.7l-11.8,7c0,0-7-15.4-7.2-24.1l8.6-2.7C23.8,122.3,19.6,73.7,47.6,42.4z"/>
</svg>
